HIERARCHY
ROOT Hips
{
	OFFSET	0.00	0.00	0.00
	CHANNELS 6 Xposition Yposition Zposition Zrotation Xrotation Yrotation
	JOINT LeftUpLeg
	{
		OFFSET	 0.126116	-0.014019	-0.065224
		CHANNELS 3 Zrotation Xrotation Yrotation
		JOINT LeftLeg
		{
			OFFSET	 0.000000	 0.000000	 0.569914
			CHANNELS 3 Zrotation Xrotation Yrotation
			JOINT LeftFoot
			{
				OFFSET	 0.000000	 0.000000	 0.544423
				CHANNELS 3 Zrotation Xrotation Yrotation
				JOINT LeftToeBase
				{
					OFFSET	 0.000000	 0.000000	 0.207117
					CHANNELS 3 Zrotation Xrotation Yrotation
					End Site
					{
						OFFSET	 0.000000	 0.000000	 0.207117
					}
				}
			}
		}
	}
	JOINT RightUpLeg
	{
		OFFSET	-0.124023	-0.008373	-0.065224
		CHANNELS 3 Zrotation Xrotation Yrotation
		JOINT RightLeg
		{
			OFFSET	 0.000000	 0.000000	 0.570047
			CHANNELS 3 Zrotation Xrotation Yrotation
			JOINT RightFoot
			{
				OFFSET	 0.000000	 0.000000	 0.544354
				CHANNELS 3 Zrotation Xrotation Yrotation
				JOINT RightToeBase
				{
					OFFSET	 0.000000	 0.000000	 0.207540
					CHANNELS 3 Zrotation Xrotation Yrotation
					End Site
					{
						OFFSET	 0.000000	 0.000000	 0.207540
					}
				}
			}
		}
	}
	JOINT Spine
	{
		OFFSET	 0.000184	-0.007763	 0.117403
		CHANNELS 3 Zrotation Xrotation Yrotation
		JOINT Spine1
		{
			OFFSET	 0.000000	 0.000000	 0.137269
			CHANNELS 3 Zrotation Xrotation Yrotation
			JOINT Spine2
			{
				OFFSET	 0.000000	 0.000000	 0.156879
				CHANNELS 3 Zrotation Xrotation Yrotation
				JOINT LeftShoulder
				{
					OFFSET	 0.080501	-0.002496	 0.160144
					CHANNELS 3 Zrotation Xrotation Yrotation
					JOINT LeftArm
					{
						OFFSET	 0.000000	 0.000000	 0.164363
						CHANNELS 3 Zrotation Xrotation Yrotation
						JOINT LeftForeArm
						{
							OFFSET	 0.000000	 0.000000	 0.364576
							CHANNELS 3 Zrotation Xrotation Yrotation
							JOINT LeftHand
							{
								OFFSET	 0.000000	 0.000000	 0.360812
								CHANNELS 3 Zrotation Xrotation Yrotation
								JOINT LeftHandIndex1
								{
									OFFSET	 0.000000	 0.000000	 0.086006
									CHANNELS 3 Zrotation Xrotation Yrotation
									JOINT LeftHandIndex2
									{
										OFFSET	 0.000000	 0.000000	 0.047236
										CHANNELS 3 Zrotation Xrotation Yrotation
										JOINT LeftHandIndex3
										{
											OFFSET	-0.004284	-0.000551	 0.038166
											CHANNELS 3 Zrotation Xrotation Yrotation
											End Site
											{
												OFFSET	-0.004284	-0.000551	 0.038166
											}
										}
									}
								}
							}
						}
					}
				}
				JOINT Neck
				{
					OFFSET	 0.000000	 0.000000	 0.176489
					CHANNELS 3 Zrotation Xrotation Yrotation
					JOINT Head
					{
						OFFSET	 0.000000	-0.001747	 0.077940
						CHANNELS 3 Zrotation Xrotation Yrotation
						End Site
						{
							OFFSET	 0.000000	-0.001747	 0.077940
						}
					}
				}
				JOINT RightShoulder
				{
					OFFSET	-0.080363	 0.000306	 0.159706
					CHANNELS 3 Zrotation Xrotation Yrotation
					JOINT RightArm
					{
						OFFSET	 0.000000	 0.000000	 0.164196
						CHANNELS 3 Zrotation Xrotation Yrotation
						JOINT RightForeArm
						{
							OFFSET	 0.000000	 0.000000	 0.365611
							CHANNELS 3 Zrotation Xrotation Yrotation
							JOINT RightHand
							{
								OFFSET	 0.000000	 0.000000	 0.360648
								CHANNELS 3 Zrotation Xrotation Yrotation
								JOINT RightHandIndex1
								{
									OFFSET	 0.000000	 0.000000	 0.069977
									CHANNELS 3 Zrotation Xrotation Yrotation
									JOINT RightHandIndex2
									{
										OFFSET	 0.000000	 0.000000	 0.052305
										CHANNELS 3 Zrotation Xrotation Yrotation
										JOINT RightHandIndex3
										{
											OFFSET	 0.009002	-0.000782	 0.042196
											CHANNELS 3 Zrotation Xrotation Yrotation
											End Site
											{
												OFFSET	 0.009002	-0.000782	 0.042196
											}
										}
									}
								}
							}
						}
					}
				}
			}
		}
	}
}
MOTION
Frames:    12
Frame Time: 0.03333334
-0.000076	 0.044453	 1.274978	-0.092493	 2.370239	 0.487426	 13.318510	-5.991281	 177.304700	 2.294119	-12.676090	 0.595247	-0.774036	 70.378090	 0.646380	-2.385833	 28.452750	 0.000004	-5.736382	-5.518835	-177.563100	-0.800655	-11.289760	 0.852320	 5.485811	 69.466300	 0.821518	 2.384659	 28.388700	-0.000001	-10.508580	 6.363170	 1.335607	-3.077489	-2.658290	-0.061355	 9.551859	 5.699274	-0.621141	-91.192280	 69.945310	-177.880300	-9.311296	 3.587707	-25.690750	 23.789750	-0.057706	-1.645269	-11.155090	-24.211900	-4.967022	-2.027600	 6.559038	 9.033609	-5.188889	 0.308190	 3.541030	-5.234859	 0.342567	 0.430617	 4.323174	 17.375610	-6.556857	 4.663936	-13.265410	 2.184913	 89.045890	 68.899340	 177.430100	 8.888586	 9.241111	 7.950005	-24.157710	-7.706999	 25.689910	 8.785336	-24.290870	 7.278805	 1.803333	 3.979147	-15.098590	 4.898592	 3.004813	-9.310344	 5.224449	 0.395017	 2.014677
-0.000247	 0.046734	 1.274621	-0.081535	 2.627178	 0.514492	 13.423690	-6.466823	 177.344500	 2.237568	-12.807080	 0.588733	-0.421063	 70.268610	 0.318937	-2.385833	 28.452750	 0.000004	-5.886056	-5.963014	-177.640800	-0.788683	-11.378910	 0.861334	 5.209065	 69.387640	 1.117258	 2.384659	 28.388700	-0.000001	-12.783970	 6.593760	 1.376277	-3.126627	-2.890943	-0.009586	 9.642033	 6.349909	-0.743441	-91.122500	 69.466580	-177.718700	-8.557068	 4.312129	-27.024470	 22.334140	 0.020277	-2.262906	-11.273300	-25.378310	-5.468000	-2.027600	 6.559038	 9.033609	-5.188889	 0.308190	 3.541030	-5.234859	 0.342567	 0.430617	 4.467993	 18.626590	-6.951988	 4.812552	-14.170820	 2.215455	 88.950590	 68.241290	 177.236100	 8.240716	 10.126250	 8.429144	-23.021070	-7.286363	 26.953210	 8.817706	-25.200740	 7.421604	 1.803333	 3.979147	-15.098590	 4.898592	 3.004813	-9.310344	 5.224449	 0.395017	 2.014677
-0.000566	 0.051067	 1.273754	-0.060568	 3.083456	 0.569284	 13.588160	-7.431837	 177.411800	 2.161367	-13.252370	 0.591338	 0.202473	 70.181180	-0.284350	-2.385833	 28.452750	 0.000004	-6.137130	-6.866241	-177.801000	-0.767469	-11.742520	 0.892819	 4.743756	 69.332840	 1.620234	 2.384659	 28.388700	-0.000001	-16.379620	 6.982097	 1.437448	-3.192164	-2.998203	 0.127337	 9.772008	 7.278549	-0.949177	-91.007360	 68.700110	-177.468200	-7.236737	 5.722168	-29.503730	 19.981890	 0.203343	-3.247154	-11.536940	-27.246770	-6.409490	-2.027600	 6.559038	 9.033609	-5.188889	 0.308190	 3.541030	-5.234859	 0.342567	 0.430617	 4.693130	 20.666140	-7.598811	 5.082119	-15.667200	 2.278977	 88.786700	 67.139680	 176.925200	 7.049537	 11.927720	 9.695396	-21.302480	-6.367413	 28.371490	 8.856519	-26.664090	 7.711155	 1.803333	 3.979147	-15.098590	 4.898592	 3.004813	-9.310344	 5.224449	 0.395017	 2.014677
-0.001040	 0.056255	 1.272586	-0.017085	 3.693911	 0.646784	 13.627970	-8.850885	 177.482900	 2.098257	-14.197670	 0.636535	 0.919335	 70.370440	-1.085321	-2.385833	 28.452750	 0.000004	-6.419803	-8.122205	-178.035800	-0.754383	-12.409400	 0.945568	 4.135171	 69.382900	 2.302436	 2.384659	 28.388700	-0.000001	-19.723300	 7.356468	 1.485830	-3.183108	-2.778885	 0.281019	 9.745182	 7.916962	-1.115918	-90.926220	 68.130270	-177.309200	-6.056502	 7.396625	-32.072550	 17.583540	 0.453090	-4.205230	-12.148520	-29.277330	-7.651507	-2.027600	 6.559038	 9.033609	-5.188889	 0.308190	 3.541030	-5.234859	 0.342567	 0.430617	 4.716055	 22.407880	-8.101715	 5.392777	-17.076590	 2.404062	 88.630650	 66.038210	 176.664800	 5.662909	 13.773890	 11.280990	-19.518840	-5.240945	 29.453830	 8.986186	-28.232450	 8.182624	 1.803333	 3.979147	-15.098590	 4.898592	 3.004813	-9.310344	 5.224449	 0.395017	 2.014677
-0.001562	 0.061833	 1.271401	 0.024239	 4.326551	 0.711805	 13.805480	-10.497510	 177.599200	 2.182907	-15.512650	 0.700987	 1.741372	 70.718570	-2.008928	-2.385833	 28.452750	 0.000004	-6.701923	-9.485722	-178.279500	-0.739646	-13.189010	 1.007320	 3.511837	 69.455020	 3.006479	 2.384659	 28.388700	-0.000001	-22.875730	 7.735694	 1.538743	-3.123670	-1.914202	 0.537253	 9.707748	 8.274687	-1.280940	-90.841050	 67.548100	-177.148800	-5.132530	 8.760905	-34.799820	 15.230440	 0.763750	-5.134328	-12.840350	-31.168280	-9.028942	-2.027600	 6.559038	 9.033609	-5.188889	 0.308190	 3.541030	-5.234859	 0.342567	 0.430617	 4.756640	 24.188850	-8.613715	 5.721441	-18.510160	 2.544917	 88.465900	 64.913340	 176.403200	 4.316883	 15.170310	 12.886670	-17.765080	-4.206467	 31.173220	 9.116219	-29.701280	 8.723701	 1.803333	 3.979147	-15.098590	 4.898592	 3.004813	-9.310344	 5.224449	 0.395017	 2.014677
-0.002020	 0.067434	 1.270761	 0.070292	 5.038374	 0.773158	 13.921430	-11.983130	 177.762000	 2.263951	-16.311910	 0.735861	 2.559160	 70.804710	-2.973265	-2.385833	 28.452760	 0.000004	-7.062775	-10.724840	-178.531800	-0.889585	-13.495840	 0.995136	 2.774994	 69.297660	 3.942964	 2.384659	 28.388700	-0.000001	-25.396590	 8.044380	 1.563070	-3.036941	-1.031917	 0.791893	 9.582897	 8.437497	-1.446857	-90.826220	 66.872650	-177.218200	-4.287696	 9.635977	-37.089090	 12.733780	 1.082782	-5.911125	-14.018160	-32.646020	-10.526640	-2.027600	 6.559038	 9.033609	-5.188889	 0.308190	 3.541030	-5.234859	 0.342567	 0.430617	 4.619341	 25.139600	-8.756723	 5.905330	-19.356370	 2.555290	 88.413810	 63.856500	 176.439100	 2.862366	 15.971090	 14.153380	-16.041520	-3.148335	 32.869300	 9.372766	-30.803950	 9.484616	 1.803333	 3.979147	-15.098590	 4.898592	 3.004813	-9.310344	 5.224449	 0.395017	 2.014677
-0.002567	 0.074346	 1.270240	 0.124683	 5.925671	 0.841727	 13.933690	-13.675520	 177.951300	 2.197089	-16.998590	 0.764580	 3.614063	 70.745140	-4.170094	-2.385832	 28.452790	-0.000001	-7.442758	-12.154120	-178.840800	-1.124188	-13.641990	 0.950102	 1.970767	 68.975400	 5.092445	 2.384659	 28.388700	-0.000001	-28.017240	 8.372674	 1.578914	-2.904480	 0.388040	 1.139064	 9.394214	 8.404674	-1.635150	-90.834580	 66.043300	-177.365400	-3.387399	 10.484700	-39.861510	 9.780417	 1.490684	-6.753236	-15.615320	-34.122890	-12.381150	-2.027600	 6.559038	 9.033609	-5.188889	 0.308190	 3.541030	-5.234859	 0.342567	 0.430617	 4.399109	 26.016980	-8.808202	 6.073112	-20.180630	 2.530476	 88.392940	 62.623400	 176.565100	 1.095439	 16.694300	 15.899740	-14.109070	-1.814527	 34.646460	 9.728190	-31.889890	 10.483060	 1.803333	 3.979147	-15.098590	 4.898592	 3.004813	-9.310344	 5.224449	 0.395017	 2.014677
-0.003090	 0.081365	 1.269596	 0.206542	 6.883695	 0.895781	 13.965380	-15.421380	 178.187600	 2.177784	-17.663050	 0.787657	 4.715699	 70.625980	-5.417686	-2.385832	 28.452790	-0.000001	-7.758811	-13.715100	-179.141700	-1.240258	-13.940270	 0.926788	 1.139166	 68.726570	 6.221132	 2.384659	 28.388700	-0.000001	-30.306960	 8.657354	 1.573242	-2.765324	 1.836288	 1.460352	 9.182497	 8.259539	-1.774843	-90.954030	 65.402850	-177.773100	-2.678554	 11.315640	-42.203490	 7.144782	 1.920723	-7.520720	-17.217860	-35.250530	-14.203450	-2.027600	 6.559038	 9.033609	-5.188889	 0.308190	 3.541030	-5.234859	 0.342567	 0.430617	 4.167202	 26.639990	-8.821556	 6.199811	-20.839880	 2.515742	 88.486600	 61.691760	 176.907200	-0.657495	 17.497850	 17.550950	-12.411220	-0.490311	 36.183360	 10.090140	-32.809720	 11.467540	 1.803333	 3.979147	-15.098590	 4.898592	 3.004813	-9.310344	 5.224449	 0.395017	 2.014677
-0.003528	 0.087811	 1.268675	 0.331337	 7.869096	 0.926756	 13.924410	-17.162820	 178.441000	 2.132413	-18.390850	 0.804664	 5.832877	 70.521190	-6.659136	-2.385832	 28.452790	-0.000001	-8.190578	-15.455630	-179.460900	-1.381953	-14.696880	 0.956316	 0.316349	 68.764190	 7.243932	 2.384659	 28.388700	-0.000001	-32.135090	 8.880477	 1.537468	-2.653469	 2.758272	 1.667921	 8.966765	 8.154466	-1.838839	-91.248050	 65.115780	-178.589200	-2.185379	 12.115410	-43.441650	 5.125099	 2.325121	-8.163679	-18.643180	-35.940180	-15.795660	-2.027600	 6.559038	 9.033609	-5.188889	 0.308190	 3.541030	-5.234859	 0.342567	 0.430617	 3.930839	 26.802090	-8.781170	 6.254844	-21.189490	 2.510912	 88.759400	 61.317780	 177.590700	-2.297759	 18.509540	 18.557850	-11.081970	 0.665667	 37.450520	 10.422530	-33.544850	 12.328540	 1.803333	 3.979147	-15.098590	 4.898592	 3.004813	-9.310344	 5.224449	 0.395017	 2.014677
-0.004222	 0.094618	 1.267503	 0.466576	 8.974913	 0.966174	 13.873190	-19.053240	 178.692600	 2.092728	-19.204650	 0.825880	 7.043372	 70.451190	-8.022264	-2.385833	 28.452760	 0.000004	-8.600657	-17.321980	-179.804100	-1.482381	-15.545620	 0.983188	-0.528427	 68.878160	 8.318833	 2.384659	 28.388700	-0.000001	-33.921480	 9.131345	 1.488939	-2.524113	 3.969970	 1.914624	 8.715975	 7.955612	-1.902702	-91.582630	 64.798110	-179.490600	-1.934704	 12.680060	-44.644620	 2.946260	 2.796065	-8.832665	-20.219850	-36.549260	-17.559390	-2.027600	 6.559038	 9.033609	-5.188889	 0.308190	 3.541030	-5.234859	 0.342567	 0.430617	 3.667314	 26.982730	-8.734660	 6.310476	-21.577070	 2.504844	 89.069750	 60.903000	 178.345400	-4.036414	 19.383570	 19.840820	-9.707592	 1.962187	 38.950480	 10.780280	-34.227520	 13.291520	 1.803333	 3.979147	-15.098590	 4.898592	 3.004813	-9.310344	 5.224449	 0.395017	 2.014677
-0.005012	 0.100958	 1.266332	 0.546328	 10.174680	 0.981690	 13.858420	-20.887170	 178.969100	 2.092748	-19.913550	 0.855152	 8.303407	 70.497620	-9.488571	-2.385833	 28.452760	 0.000004	-8.913665	-19.295480	 179.887900	-1.564098	-16.622130	 1.025944	-1.561479	 69.273420	 9.576324	 2.384659	 28.388700	-0.000001	-35.388050	 9.374373	 1.474438	-2.374195	 5.246314	 2.128098	 8.456866	 7.552370	-1.839538	-91.991580	 64.877530	 179.430900	-1.859288	 13.299420	-45.303570	 1.509821	 3.266039	-9.441917	-21.291300	-37.014690	-18.834190	-2.027600	 6.559038	 9.033609	-5.188889	 0.308190	 3.541030	-5.234859	 0.342567	 0.430617	 3.438513	 26.379700	-8.833841	 6.272186	-21.506240	 2.427340	 89.465890	 60.631660	 179.272200	-5.638044	 20.368250	 20.754920	-8.309256	 3.350838	 40.852950	 11.492420	-34.906380	 14.227430	 1.803333	 3.979147	-15.098590	 4.898592	 3.004813	-9.310344	 5.224449	 0.395017	 2.014677
-0.005961	 0.107124	 1.265317	 0.610953	 11.447610	 0.995400	 13.844510	-22.671210	 179.244600	 2.106534	-20.471450	 0.882926	 9.549581	 70.516510	-10.965340	-2.385832	 28.452790	-0.000001	-9.213552	-21.292480	 179.577200	-1.659499	-17.720650	 1.062484	-2.645241	 69.743030	 10.897340	 2.384659	 28.388700	-0.000001	-36.601650	 9.611676	 1.463493	-2.212074	 6.803830	 2.356955	 8.179613	 6.991772	-1.741879	-92.417780	 65.040700	 178.291900	-2.003504	 13.739390	-45.815200	 0.248704	 3.751809	-10.014570	-22.232980	-37.370970	-20.004600	-2.027600	 6.559038	 9.033609	-5.188889	 0.308190	 3.541030	-5.234859	 0.342567	 0.430617	 3.212173	 25.610290	-8.969949	 6.211322	-21.340600	 2.330724	 89.890530	 60.386530	-179.752400	-7.187780	 21.211740	 21.795400	-7.003445	 4.820062	 42.971030	 12.261330	-35.490970	 15.155440	 1.803333	 3.979147	-15.098590	 4.898592	 3.004813	-9.310344	 5.224449	 0.395017	 2.014677
